<?xml version="1.0" standalone="no"?>
<!DOCTYPE svg PUBLIC "-//W3C//DTD SVG 20010904//EN"
 "http://www.w3.org/TR/2001/REC-SVG-20010904/DTD/svg10.dtd">
<svg version="1.0" xmlns="http://www.w3.org/2000/svg"
 width="1600.000000pt" height="1335.000000pt" viewBox="0 0 1600.000000 1335.000000"
 preserveAspectRatio="xMidYMid meet">

<g transform="translate(0.000000,1335.000000) scale(0.100000,-0.100000)"
fill="#000000" stroke="none">
<path d="M7725 13104 c-182 -17 -394 -58 -472 -90 -53 -23 -55 -34 -33 -235
11 -100 20 -196 20 -215 0 -35 -3 -37 -75 -49 -22 -4 -51 -13 -64 -22 -23 -15
-24 -17 -17 -118 l7 -103 -30 -21 c-41 -30 -101 -49 -168 -55 -32 -3 -254 -8
-493 -11 -552 -7 -1761 -36 -2070 -50 -524 -24 -1003 -69 -1165 -110 -253 -64
-480 -210 -578 -371 -39 -65 -109 -264 -155 -445 -122 -470 -201 -1141 -189
-1606 6 -222 15 -269 77 -392 70 -141 185 -269 335 -376 195 -139 413 -214
765 -264 451 -64 762 -78 2240 -101 360 -6 927 -15 1258 -20 332 -6 641 -10
686 -10 50 0 88 -5 98 -12 14 -11 18 -66 28 -413 6 -220 17 -589 25 -820 26
-748 28 -841 21 -869 -11 -46 -84 -114 -232 -217 -200 -139 -249 -201 -280
-351 -9 -42 -29 -96 -47 -127 -43 -73 -250 -260 -377 -342 -55 -35 -135 -86
-177 -114 -134 -86 -193 -198 -180 -340 8 -88 33 -140 98 -202 33 -33 50 -56
44 -61 -6 -5 -41 -26 -80 -47 -38 -20 -85 -51 -104 -69 -87 -81 -95 -229 -17
-330 14 -19 26 -37 26 -40 0 -16 -145 -76 -278 -115 -51 -15 -85 -33 -113 -58
-52 -47 -60 -63 -69 -142 -6 -42 -15 -70 -25 -77 -20 -15 -66 -21 -243 -34
-175 -13 -207 -22 -258 -74 -70 -73 -91 -190 -54 -307 10 -35 18 -64 17 -64
-1 -1 -27 -7 -58 -14 -79 -17 -146 -64 -196 -139 -117 -174 -80 -348 100 -471
108 -74 259 -121 387 -121 33 0 60 -3 60 -7 0 -3 -11 -30 -25 -59 -118 -250
18 -500 306 -564 54 -12 189 -9 249 5 20 5 35 -3 75 -40 28 -26 77 -61 110
-78 50 -25 72 -31 130 -31 43 0 93 7 128 18 31 10 61 16 65 12 4 -5 6 -38 6
-74 -2 -80 -33 -158 -95 -235 -58 -73 -68 -77 -174 -65 -50 5 -120 8 -157 6
-61 -3 -71 -7 -103 -38 -27 -26 -42 -54 -60 -115 -47 -159 -75 -348 -75 -513
0 -171 32 -206 198 -223 53 -5 250 -28 437 -50 342 -40 500 -59 1050 -126 470
-57 533 -55 570 17 46 89 75 301 75 545 0 158 -2 173 -23 209 -31 54 -73 72
-212 91 -122 17 -155 27 -155 47 0 6 -17 45 -37 87 -46 92 -56 184 -28 257 9
24 19 44 21 44 3 0 21 -12 39 -26 110 -84 248 -83 401 2 61 33 62 33 85 15 64
-49 84 -53 243 -49 138 3 156 6 208 30 81 38 150 105 183 181 24 51 28 75 27
137 0 41 -5 97 -11 125 -5 27 -8 52 -6 54 2 2 51 -2 109 -9 212 -26 392 23
501 136 52 54 69 108 63 212 -6 109 -38 183 -105 241 -41 37 -133 81 -168 81
-24 0 -18 13 26 55 23 22 51 60 62 85 24 54 27 139 5 190 -35 82 -148 153
-333 209 -143 43 -146 46 -139 130 6 60 4 75 -19 124 -27 60 -39 69 -216 173
-86 51 -154 114 -145 136 2 7 20 24 38 38 82 61 111 145 86 252 -11 47 -22 62
-101 140 -49 47 -89 88 -89 91 0 3 12 8 27 12 44 11 119 71 151 123 46 71 58
128 45 208 -20 118 -51 164 -218 329 -84 83 -166 170 -183 195 -16 25 -57 102
-91 173 l-62 127 7 83 c11 141 -26 257 -111 347 -105 112 -209 238 -231 282
-41 81 -46 133 -29 317 8 91 19 285 25 431 6 146 19 429 30 630 10 201 22 460
26 575 4 116 10 219 15 231 l7 21 774 6 c1864 15 3433 51 3749 87 211 24 455
88 584 153 158 79 319 224 382 343 37 72 75 182 99 289 38 168 12 840 -46
1180 -61 362 -164 794 -226 950 -9 22 -20 49 -24 60 -61 164 -188 312 -325
379 -177 87 -716 169 -1340 206 -1128 65 -1753 90 -2286 90 -173 0 -331 5
-365 11 -51 9 -120 42 -203 98 -12 7 -14 30 -12 99 2 63 -1 92 -11 99 -7 6
-42 20 -78 31 l-65 20 0 68 c0 38 6 136 14 218 l14 150 -23 18 c-46 37 -279
93 -452 107 -126 11 -521 21 -583 15z m910 -238 c17 -12 18 -18 7 -40 -15 -33
-39 -33 -54 -1 -8 19 -8 28 2 40 15 19 21 19 45 1z m-1235 -14 c0 -10 -6 -27
-14 -38 -14 -18 -15 -18 -21 8 -4 15 -4 32 0 37 10 18 35 12 35 -7z m131 -32
c23 -13 26 -75 4 -104 -19 -26 -35 -11 -44 41 -12 67 -1 84 40 63z m-117 -79
c3 -5 17 -95 31 -201 24 -183 24 -194 7 -206 -10 -8 -21 -9 -26 -3 -12 11 -57
378 -50 402 6 18 29 23 38 8z m164 -152 c3 -29 -20 -54 -43 -45 -15 5 -21 57
-8 70 16 16 48 1 51 -25z m1040 -45 c3 -34 -18 -60 -43 -50 -21 8 -28 31 -21
62 5 20 12 25 34 22 22 -2 28 -9 30 -34z m-1448 -221 c0 -24 -4 -43 -9 -43
-13 0 -21 38 -20 95 l1 50 13 -30 c8 -16 14 -49 15 -72z m1428 49 c3 -32 2
-33 -30 -30 -22 2 -34 9 -36 21 -5 25 17 49 42 45 16 -2 22 -11 24 -36z m262
4 c0 -47 -11 -96 -21 -96 -10 0 -12 73 -3 108 9 33 24 26 24 -12z m-1555 -186
c9 -14 -17 -22 -57 -18 l-33 4 35 11 c46 15 48 15 55 3z m1441 -6 c39 -10 27
-24 -21 -24 -31 0 -45 4 -45 13 0 19 12 28 28 22 8 -3 25 -8 38 -11z m-5162
-260 c9 -8 16 -17 16 -19 0 -2 -7 -11 -16 -19 -26 -27 -94 -16 -94 15 0 16 33
39 55 39 13 0 31 -7 39 -16z m-204 -29 c11 -10 20 -22 20 -26 0 -12 -167 -62
-185 -55 -31 12 -13 68 30 95 28 16 111 8 135 -14z m-296 -101 c9 -8 16 -19
16 -24 0 -11 -50 -48 -111 -83 -124 -71 -247 -237 -294 -401 -18 -62 -46 -99
-69 -90 -52 20 8 232 109 383 106 159 292 273 349 215z m5641 -4 c993 -9 1477
-22 2140 -55 165 -8 464 -22 665 -30 425 -18 611 -30 770 -51 230 -29 558
-105 631 -145 73 -41 131 -133 153 -244 l6 -30 -27 35 c-15 19 -54 62 -88 95
-50 49 -78 67 -145 94 -252 99 -252 99 -2700 201 -1061 44 -2452 59 -3745 41
-1010 -14 -1296 -26 -2125 -86 -517 -38 -582 -44 -775 -71 -253 -36 -318 -59
-432 -151 -47 -38 -55 -28 -22 27 48 79 118 134 231 179 81 33 275 83 383 100
164 26 556 52 910 62 209 6 587 16 840 23 581 16 1986 19 3330 6z m650 -190
c319 -11 672 -24 785 -30 393 -19 1306 -59 1480 -65 447 -16 863 -36 940 -46
97 -12 214 -48 280 -86 25 -15 73 -54 108 -87 193 -185 334 -734 383 -1489 14
-219 10 -265 -35 -359 -45 -93 -108 -163 -178 -197 -138 -65 -238 -84 -609
-111 -386 -29 -595 -38 -1234 -49 -308 -6 -814 -16 -1125 -23 -713 -16 -1718
-16 -3900 0 -2017 14 -2410 23 -2750 63 -123 14 -321 47 -422 70 -74 17 -87
24 -90 42 -2 17 -10 22 -33 24 -16 0 -35 2 -42 2 -7 1 -41 28 -76 61 -83 77
-110 137 -133 290 -26 181 -18 305 67 945 38 293 55 388 80 472 59 192 181
328 351 391 80 30 190 48 458 77 489 51 900 79 1435 95 187 5 403 12 480 15
77 2 282 8 455 11 173 4 317 9 320 12 3 2 550 2 1215 -1 921 -5 1348 -11 1790
-27z m4055 -1075 c16 -19 3 -55 -20 -55 -26 0 -45 36 -29 56 15 18 33 18 49
-1z m65 -475 c15 -16 17 -26 9 -48 -11 -32 -43 -41 -61 -16 -17 24 -16 49 3
68 20 21 27 20 49 -4z m-10999 -194 c8 -32 -2 -63 -24 -71 -32 -12 -57 56 -30
83 20 20 47 14 54 -12z m11020 -11 c4 -8 -2 -27 -11 -42 l-18 -26 -14 27 c-8
15 -12 34 -9 42 7 19 45 18 52 -1z m-11027 -208 c13 -16 37 -164 28 -173 -3
-4 -17 -4 -30 0 -30 7 -57 61 -60 115 -2 58 34 91 62 58z m10985 -269 c7 -12
6 -25 -2 -43 -10 -21 -18 -26 -40 -23 -37 4 -44 49 -10 72 26 18 37 17 52 -6z
m-108 -133 c18 -46 -40 -117 -132 -160 -76 -36 -128 -46 -153 -28 -34 23 -24
40 38 69 33 14 93 50 133 80 75 55 104 65 114 39z m-10756 -96 c111 -101 238
-168 416 -218 236 -67 318 -74 1134 -101 327 -11 645 -22 705 -25 61 -3 313
-10 560 -15 248 -5 708 -17 1024 -26 746 -21 3358 -15 4211 10 1071 31 1379
43 1760 71 218 16 536 50 620 66 179 34 329 96 414 170 25 22 47 35 50 31 9
-15 -60 -104 -119 -153 -202 -167 -588 -262 -1191 -294 -153 -8 -313 -17 -354
-20 -41 -3 -300 -10 -575 -15 -1002 -21 -1398 -30 -1770 -41 -378 -12 -926 -7
-2695 21 -322 5 -954 14 -1405 20 -1393 18 -1753 35 -2078 101 -375 77 -671
244 -785 442 -42 72 -20 66 78 -24z m5413 -679 c5 -4 -9 -281 -37 -745 -3 -49
-15 -250 -26 -445 -36 -643 -40 -704 -47 -765 -6 -52 -8 -56 -14 -30 -4 17 -7
91 -8 165 0 74 -5 227 -10 340 -6 113 -13 309 -16 435 -3 127 -12 411 -21 633
-8 222 -12 408 -8 413 6 11 177 9 187 -1z m-70 -2251 c44 -74 134 -200 175
-245 15 -17 48 -55 75 -85 89 -101 100 -141 87 -344 -4 -58 -1 -66 71 -210
104 -209 136 -249 363 -465 109 -103 141 -201 96 -289 -26 -52 -59 -77 -123
-91 -85 -20 -127 -55 -127 -106 0 -31 41 -94 92 -141 143 -132 148 -139 148
-174 0 -45 -20 -72 -85 -114 -74 -47 -90 -73 -75 -122 19 -58 95 -159 154
-203 29 -22 84 -55 122 -74 128 -62 158 -107 119 -176 -26 -46 -19 -77 31
-130 54 -58 93 -77 237 -119 137 -39 191 -72 223 -134 32 -60 -33 -128 -177
-182 -53 -20 -68 -31 -73 -51 -8 -30 4 -54 45 -88 48 -41 82 -55 171 -72 123
-23 164 -51 193 -133 33 -95 12 -160 -68 -208 -82 -50 -153 -66 -271 -61 -91
3 -117 9 -273 62 -180 61 -216 65 -228 25 -12 -36 2 -62 84 -154 51 -57 86
-106 96 -134 46 -136 -17 -267 -147 -306 -30 -9 -90 -15 -142 -15 -104 0 -142
16 -175 72 -45 75 -69 77 -131 12 -59 -60 -149 -104 -215 -104 -59 0 -101 22
-141 76 -72 94 -90 99 -147 45 -67 -62 -126 -256 -113 -372 10 -100 91 -283
139 -314 12 -7 78 -21 147 -30 151 -20 187 -30 202 -58 14 -27 4 -365 -15
-458 -7 -36 -26 -87 -41 -112 -34 -58 -15 -58 -405 -12 -359 42 -1115 129
-1301 151 -278 32 -301 38 -320 90 -16 42 -11 195 10 321 25 148 44 212 71
246 24 32 50 33 224 16 136 -14 150 -8 229 87 104 126 143 304 97 451 -24 78
-54 133 -74 133 -7 0 -24 -11 -37 -25 -13 -13 -43 -32 -66 -41 -114 -43 -287
36 -356 164 l-17 31 -60 -31 c-99 -51 -200 -48 -316 9 -99 48 -144 116 -145
214 0 86 34 143 148 246 54 48 97 92 97 98 0 6 -25 9 -65 7 -86 -4 -308 15
-395 35 -135 30 -261 107 -301 184 -34 66 4 178 77 226 40 26 51 28 173 33
116 5 136 8 175 30 82 46 80 63 -21 131 -79 54 -105 85 -118 140 -10 39 -9 52
4 78 9 17 27 37 39 45 29 19 132 42 227 51 134 12 239 44 287 88 21 18 22 27
17 86 -8 91 9 112 119 146 180 57 310 143 358 238 l21 40 -45 46 c-58 60 -80
104 -73 146 8 38 33 63 106 101 73 38 190 153 190 187 0 20 -15 33 -80 73 -68
41 -84 56 -105 98 -28 56 -32 110 -12 159 19 45 111 126 204 180 140 81 256
170 379 292 138 136 168 185 184 296 19 132 47 171 198 277 44 31 110 79 147
105 37 26 69 46 71 44 7 -7 24 -296 18 -312 -8 -19 -18 -19 -38 0 -20 20 -23
19 -31 -12 -3 -15 -31 -50 -61 -79 -43 -41 -54 -59 -54 -84 0 -36 27 -93 67
-140 95 -113 291 -57 310 89 9 64 -4 104 -51 159 l-44 51 -6 113 c-19 358 -19
361 -6 356 8 -2 31 -33 53 -69z m-123 -504 c7 -8 30 -18 52 -21 49 -8 63 -37
45 -91 -15 -45 -71 -78 -116 -68 -74 16 -108 119 -56 170 27 28 57 32 75 10z"/>
<path d="M5831 11444 c-15 -6 -56 -44 -91 -85 -36 -41 -115 -128 -175 -194
-61 -66 -153 -167 -205 -225 -105 -118 -225 -249 -442 -483 -81 -87 -216 -233
-300 -325 -189 -208 -313 -343 -493 -537 -200 -215 -275 -301 -275 -312 0 -19
340 -35 381 -18 9 3 59 57 110 118 51 62 155 175 229 252 75 77 170 181 212
230 42 50 84 97 93 105 10 8 72 76 138 150 66 74 161 178 211 230 50 52 109
116 130 143 21 26 95 105 163 175 69 70 184 197 256 281 73 85 182 207 242
270 139 146 198 218 190 231 -9 14 -339 9 -374 -6z"/>
<path d="M7699 11453 c-17 -4 -174 -175 -339 -368 -52 -60 -158 -182 -235
-270 -77 -88 -165 -191 -195 -230 -30 -38 -102 -122 -161 -185 -59 -63 -137
-151 -174 -195 -38 -44 -105 -120 -149 -170 -45 -49 -106 -119 -136 -155 -30
-36 -90 -103 -132 -148 -43 -46 -85 -97 -93 -113 -9 -15 -56 -69 -105 -119
-90 -91 -200 -227 -200 -248 0 -19 44 -19 73 1 15 10 89 89 164 175 147 169
174 198 329 367 88 96 272 306 387 444 59 70 147 170 198 226 260 285 853 962
857 980 3 11 -6 15 -35 14 -21 -1 -45 -3 -54 -6z"/>
<path d="M8274 11398 c-67 -71 -792 -901 -924 -1057 -142 -169 -333 -392 -455
-532 -55 -64 -138 -160 -185 -215 -46 -54 -135 -156 -197 -225 -62 -70 -113
-132 -113 -138 0 -16 162 -15 182 2 8 6 46 48 83 92 38 44 112 127 165 185 54
58 151 168 216 245 65 77 123 145 129 150 6 6 51 55 100 110 49 55 139 154
200 220 61 66 187 206 280 310 93 105 199 222 235 260 36 39 162 182 280 319
118 138 225 261 237 275 41 46 33 51 -81 51 l-103 0 -49 -52z"/>
<path d="M5137 11431 c-27 -4 -52 -12 -56 -19 -4 -6 -43 -49 -87 -95 -207
-216 -375 -398 -485 -527 -35 -41 -107 -119 -160 -175 -109 -114 -246 -266
-301 -334 -21 -25 -61 -70 -90 -100 -29 -29 -52 -57 -50 -63 1 -5 -2 -7 -7 -4
-5 3 -30 -18 -56 -47 -26 -28 -91 -97 -144 -152 -53 -55 -141 -149 -196 -210
-54 -60 -145 -158 -202 -216 -57 -58 -103 -111 -103 -117 0 -19 134 -48 169
-37 25 7 557 573 655 696 40 50 102 115 134 141 18 15 59 58 90 96 84 103 158
185 239 265 39 40 98 104 131 142 32 39 101 113 153 166 52 53 129 133 171
176 42 44 84 83 92 86 9 4 21 19 27 33 5 15 34 51 64 79 30 28 55 57 55 63 0
6 27 40 60 75 33 36 60 70 60 76 0 12 -81 13 -163 2z"/>
<path d="M4660 11411 c-101 -7 -134 -24 -202 -106 -26 -31 -141 -154 -255
-273 -262 -273 -353 -369 -478 -507 -55 -60 -150 -162 -211 -225 -61 -63 -167
-175 -235 -249 -68 -74 -179 -194 -246 -267 -140 -151 -143 -157 -90 -244 33
-56 117 -123 141 -114 14 5 279 286 438 465 49 54 160 173 248 265 100 104
159 172 156 181 -3 8 -2 12 2 9 5 -3 42 32 83 77 41 44 169 180 285 302 207
216 381 403 446 478 18 21 69 76 113 123 44 47 82 87 84 89 6 6 -171 3 -279
-4z"/>
<path d="M10176 11378 c-40 -37 -328 -351 -484 -528 -180 -205 -472 -529 -572
-635 -81 -86 -241 -262 -304 -335 -21 -25 -96 -106 -167 -180 -70 -74 -155
-169 -190 -210 -34 -41 -102 -117 -151 -169 -49 -51 -86 -97 -81 -102 4 -4 42
-11 84 -15 l76 -6 44 43 c51 51 211 227 574 634 142 160 286 319 319 355 34
36 86 92 116 125 31 33 109 121 175 195 127 144 254 285 375 415 69 75 259
286 339 378 42 48 33 57 -61 57 -55 0 -71 -4 -92 -22z"/>
<path d="M3885 11359 c-38 -5 -79 -16 -91 -24 -12 -8 -113 -114 -225 -235
-111 -121 -257 -276 -323 -343 -219 -222 -313 -332 -320 -374 -15 -87 -22
-173 -16 -183 4 -6 51 36 106 93 113 117 114 118 484 517 150 162 327 350 393
417 65 67 116 127 112 132 -7 12 -21 12 -120 0z"/>
<path d="M10779 11314 c-52 -55 -137 -150 -439 -489 -193 -216 -374 -417 -474
-525 -34 -36 -79 -86 -101 -110 -23 -25 -122 -135 -221 -245 -99 -110 -284
-316 -412 -458 -128 -141 -232 -262 -232 -267 0 -6 66 -10 174 -10 200 0 176
-10 280 117 36 44 90 103 119 130 30 27 71 73 92 103 21 30 80 98 130 150 50
52 112 118 136 145 25 28 94 104 154 170 162 177 177 194 241 270 67 81 200
229 359 400 62 66 163 179 225 250 63 72 152 173 200 225 146 162 154 172 138
181 -8 4 -81 11 -164 14 l-149 7 -56 -58z"/>
<path d="M11558 11299 c-84 -87 -533 -588 -703 -784 -33 -38 -110 -121 -171
-185 -61 -63 -191 -205 -289 -315 -97 -110 -198 -222 -224 -250 -49 -53 -389
-428 -454 -502 -33 -36 -36 -44 -22 -49 21 -9 353 2 378 11 9 4 124 127 255
273 269 302 353 394 460 505 42 43 85 91 97 107 33 45 196 231 245 279 25 25
63 68 85 97 22 28 103 120 181 205 78 85 188 205 245 268 233 254 312 351 298
365 -3 3 -80 8 -172 12 l-167 7 -42 -44z"/>
<path d="M3417 11300 c-237 -63 -372 -226 -426 -515 -6 -35 -5 -45 5 -45 15 0
107 89 187 182 32 37 70 75 85 84 15 9 39 32 52 52 14 20 71 84 128 143 56 58
102 109 102 113 0 11 -64 5 -133 -14z"/>
<path d="M12925 10914 c-25 -25 -45 -52 -45 -60 0 -8 -5 -14 -11 -14 -6 0 -43
-34 -83 -77 -39 -42 -116 -124 -172 -182 -238 -250 -334 -356 -334 -368 0 -7
-6 -13 -13 -13 -7 0 -44 -37 -83 -82 -38 -46 -132 -148 -209 -228 -234 -242
-487 -514 -554 -595 -46 -56 -42 -65 29 -65 66 0 116 17 140 48 12 15 63 70
113 122 51 52 185 196 299 320 114 124 253 275 309 335 99 106 144 155 389
425 62 69 160 175 218 235 57 61 108 121 113 134 11 27 -25 111 -48 111 -8 0
-34 -21 -58 -46z"/>
<path d="M12995 10279 c-82 -89 -181 -196 -219 -238 -124 -136 -279 -304 -366
-396 -180 -189 -229 -242 -289 -310 -33 -38 -61 -73 -61 -78 0 -6 20 -7 48 -3
26 4 106 10 177 14 145 8 155 12 207 83 34 47 160 185 492 537 116 123 215
230 219 237 4 8 -2 74 -13 147 -23 147 -28 168 -38 168 -4 0 -74 -73 -157
-161z"/>
<path d="M12967 9566 c-136 -140 -247 -259 -247 -265 0 -7 10 -9 23 -6 12 3
63 14 112 25 l90 20 142 147 c80 83 147 161 153 178 12 35 0 147 -16 152 -5 2
-121 -111 -257 -251z"/>
<path d="M7946 6053 c-12 -12 -6 -33 9 -33 8 0 15 6 15 14 0 17 -14 28 -24 19z"/>
<path d="M7661 5866 c-11 -14 -5 -46 9 -46 15 0 32 30 26 45 -7 19 -20 19 -35
1z"/>
<path d="M7510 5734 c-14 -35 -9 -96 7 -101 14 -5 36 63 31 97 -5 34 -26 36
-38 4z"/>
<path d="M8197 5603 c-4 -3 -7 -17 -7 -30 0 -33 24 -24 28 10 3 26 -7 35 -21
20z"/>
<path d="M7491 5536 c-15 -18 -11 -68 6 -73 6 -2 19 8 29 22 16 25 16 27 -3
46 -17 18 -21 18 -32 5z"/>
<path d="M8066 5485 c-9 -25 -7 -73 3 -80 18 -10 42 27 39 59 -3 34 -31 48
-42 21z"/>
<path d="M7350 5451 c-14 -28 -12 -57 5 -71 19 -16 40 0 49 36 12 46 -33 74
-54 35z"/>
<path d="M7616 5452 c-3 -5 -8 -31 -11 -58 -5 -38 -3 -53 8 -62 11 -10 16 -10
24 0 13 17 25 92 17 112 -6 17 -29 22 -38 8z"/>
<path d="M7962 5393 c-14 -28 0 -128 18 -128 21 0 38 109 20 130 -16 20 -27
19 -38 -2z"/>
<path d="M8164 5399 c-10 -17 13 -36 27 -22 12 12 4 33 -11 33 -5 0 -12 -5
-16 -11z"/>
<path d="M7743 5378 c-6 -7 -16 -47 -22 -88 -11 -67 -10 -76 6 -87 32 -24 46
6 47 98 1 81 -9 105 -31 77z"/>
<path d="M7854 5376 c-9 -23 7 -38 26 -26 13 8 13 11 -2 26 -16 17 -18 17 -24
0z"/>
<path d="M7471 5346 c-9 -11 -10 -20 -1 -35 6 -12 13 -21 15 -21 10 0 24 40
19 54 -8 20 -18 20 -33 2z"/>
<path d="M7214 5296 c-10 -25 0 -61 18 -64 21 -4 41 32 33 58 -7 23 -43 27
-51 6z"/>
<path d="M8057 5303 c-11 -10 -8 -41 4 -49 6 -3 18 1 27 9 13 13 13 19 2 31
-14 17 -23 20 -33 9z"/>
<path d="M7333 5258 c-29 -37 -21 -108 13 -108 33 0 46 112 13 118 -9 2 -20
-3 -26 -10z"/>
<path d="M7840 5251 c-22 -42 -5 -140 20 -115 16 16 29 111 16 124 -15 15 -24
12 -36 -9z"/>
<path d="M7580 5215 c0 -28 21 -33 40 -10 15 18 5 35 -21 35 -14 0 -19 -7 -19
-25z"/>
<path d="M8306 5223 c-11 -11 -6 -23 9 -23 8 0 15 4 15 9 0 13 -16 22 -24 14z"/>
<path d="M7070 5166 c-6 -18 -12 -73 -13 -122 -2 -76 0 -89 15 -92 9 -2 21 5
27 15 14 27 34 181 27 210 -10 36 -42 30 -56 -11z"/>
<path d="M7440 5165 c-7 -9 -10 -25 -6 -41 7 -25 8 -26 26 -9 23 21 25 38 6
54 -10 9 -16 8 -26 -4z"/>
<path d="M7191 5121 c-17 -31 -14 -81 5 -88 24 -9 45 25 42 67 -3 40 -31 53
-47 21z"/>
<path d="M8270 5084 c0 -8 5 -12 10 -9 6 3 10 10 10 16 0 5 -4 9 -10 9 -5 0
-10 -7 -10 -16z"/>
<path d="M6931 5068 c-9 -24 5 -59 24 -60 15 -1 36 47 29 66 -9 24 -43 19 -53
-6z"/>
<path d="M7716 5023 c-3 -3 -6 -15 -6 -25 0 -21 23 -24 39 -4 10 12 8 17 -7
25 -11 6 -22 7 -26 4z"/>
<path d="M6813 4998 c-13 -28 0 -68 22 -68 22 0 42 47 28 68 -16 26 -38 25
-50 0z"/>
<path d="M8350 5005 c0 -10 7 -15 18 -13 21 4 19 22 -2 26 -10 2 -16 -3 -16
-13z"/>
<path d="M7311 4987 c-16 -30 -11 -62 9 -62 23 0 37 52 19 70 -14 14 -17 13
-28 -8z"/>
<path d="M7175 4929 c-9 -28 8 -45 25 -25 13 17 7 46 -9 46 -5 0 -13 -9 -16
-21z"/>
<path d="M6918 4928 c-3 -7 -1 -24 3 -37 8 -20 12 -21 25 -11 8 8 14 23 12 34
-3 24 -33 34 -40 14z"/>
<path d="M8437 4924 c-11 -11 -8 -62 3 -69 5 -3 15 6 22 20 9 21 9 29 -3 41
-8 8 -18 11 -22 8z"/>
<path d="M6686 4904 c-9 -24 4 -84 18 -84 7 0 20 15 29 34 15 32 15 35 -2 50
-22 20 -37 20 -45 0z"/>
<path d="M7450 4895 c-10 -12 -10 -19 -2 -27 15 -15 48 14 38 31 -10 15 -21
14 -36 -4z"/>
<path d="M8322 4884 c4 -21 22 -23 26 -1 2 10 -3 17 -13 17 -10 0 -15 -6 -13
-16z"/>
<path d="M7040 4859 c-10 -17 -9 -24 4 -38 15 -14 18 -14 26 -1 14 21 12 36
-4 49 -12 10 -17 8 -26 -10z"/>
<path d="M8540 4861 c0 -11 4 -22 9 -25 12 -8 34 21 26 34 -11 17 -35 11 -35
-9z"/>
<path d="M6790 4831 c0 -51 29 -68 47 -28 14 30 6 47 -23 47 -17 0 -24 -6 -24
-19z"/>
<path d="M7284 4816 c-3 -9 -3 -28 1 -43 l6 -26 22 22 c17 16 19 25 11 38 -15
24 -33 28 -40 9z"/>
<path d="M7685 4820 c-3 -6 -3 -19 0 -31 6 -19 8 -20 26 -3 14 13 16 20 8 31
-14 16 -26 17 -34 3z"/>
<path d="M6901 4778 c-10 -29 -3 -58 15 -58 18 0 39 44 31 64 -9 23 -36 19
-46 -6z"/>
<path d="M7545 4790 c-8 -13 3 -50 15 -50 12 0 23 37 15 50 -3 5 -10 10 -15
10 -5 0 -12 -5 -15 -10z"/>
<path d="M8637 4764 c-8 -8 3 -34 14 -34 5 0 9 9 9 20 0 19 -11 26 -23 14z"/>
<path d="M7150 4740 c-12 -22 -5 -60 11 -60 14 0 33 46 26 64 -9 22 -24 20
-37 -4z"/>
<path d="M8420 4734 c0 -8 5 -12 10 -9 6 3 10 10 10 16 0 5 -4 9 -10 9 -5 0
-10 -7 -10 -16z"/>
<path d="M8543 4724 c-9 -23 11 -38 26 -20 13 16 7 36 -10 36 -5 0 -12 -7 -16
-16z"/>
<path d="M7420 4694 c-9 -10 -10 -18 -2 -26 12 -12 32 -2 32 17 0 21 -16 26
-30 9z"/>
<path d="M7004 4655 c-8 -19 3 -65 15 -65 12 0 34 57 26 69 -9 16 -35 13 -41
-4z"/>
<path d="M8650 4595 c0 -8 5 -15 10 -15 6 0 10 7 10 15 0 8 -4 15 -10 15 -5 0
-10 -7 -10 -15z"/>
<path d="M6874 4555 c-7 -17 2 -45 13 -45 4 0 17 7 27 15 16 12 17 17 6 30
-16 19 -39 19 -46 0z"/>
<path d="M7122 4558 c-15 -19 -32 -111 -25 -137 11 -42 36 -20 50 44 17 83 5
129 -25 93z"/>
<path d="M7530 4541 c0 -11 4 -22 9 -25 11 -7 23 22 15 35 -9 16 -24 10 -24
-10z"/>
<path d="M6987 4497 c-24 -17 -47 -191 -28 -209 21 -22 37 13 51 112 14 97 8
120 -23 97z"/>
<path d="M7391 4496 c-17 -20 3 -30 30 -15 17 9 19 13 8 20 -19 12 -25 11 -38
-5z"/>
<path d="M8450 4495 c12 -15 30 -12 30 6 0 5 -10 9 -21 9 -18 0 -19 -2 -9 -15z"/>
<path d="M6751 4406 c-6 -8 -13 -36 -14 -62 -2 -38 2 -49 14 -52 12 -2 20 10
29 41 18 65 0 108 -29 73z"/>
<path d="M6840 4348 c-29 -130 -22 -206 15 -167 18 20 45 180 33 202 -17 32
-36 19 -48 -35z"/>
<path d="M7215 4390 c-3 -5 -2 -17 3 -26 8 -14 10 -14 21 0 13 15 8 36 -9 36
-5 0 -12 -4 -15 -10z"/>
<path d="M8294 4347 c-9 -24 6 -44 18 -22 7 11 6 21 -1 28 -7 7 -12 6 -17 -6z"/>
<path d="M6627 4333 c-12 -11 -8 -40 6 -52 21 -17 55 23 37 44 -13 16 -32 20
-43 8z"/>
<path d="M7071 4257 c-16 -16 7 -41 25 -26 8 6 14 15 14 19 0 14 -27 19 -39 7z"/>
<path d="M8410 4250 c0 -11 6 -20 14 -20 21 0 31 21 15 31 -22 14 -29 11 -29
-11z"/>
<path d="M7184 4242 c-19 -12 -35 -82 -23 -104 14 -26 35 -8 51 44 9 32 9 41
-3 53 -8 8 -19 11 -25 7z"/>
<path d="M8514 4239 c-10 -17 13 -36 27 -22 12 12 4 33 -11 33 -5 0 -12 -5
-16 -11z"/>
<path d="M6717 4198 c-2 -7 0 -21 5 -31 9 -18 11 -18 29 -1 14 13 16 20 8 31
-14 16 -36 17 -42 1z"/>
<path d="M6927 4176 c-3 -8 0 -22 7 -31 11 -15 13 -15 25 -1 15 18 8 46 -13
46 -7 0 -16 -6 -19 -14z"/>
<path d="M7277 4143 c-13 -15 -13 -21 -3 -35 18 -25 35 -22 42 6 11 43 -11 59
-39 29z"/>
<path d="M8272 4149 c2 -6 8 -10 13 -10 5 0 11 4 13 10 2 6 -4 11 -13 11 -9 0
-15 -5 -13 -11z"/>
<path d="M8616 4123 c-11 -11 -6 -23 9 -23 8 0 15 4 15 9 0 13 -16 22 -24 14z"/>
<path d="M7046 4105 c-17 -18 -19 -28 -10 -62 7 -27 19 -22 38 15 12 23 12 31
1 45 -12 16 -14 16 -29 2z"/>
<path d="M8514 4105 c-9 -23 10 -40 25 -22 9 11 8 17 -4 27 -12 10 -16 9 -21
-5z"/>
<path d="M6790 4035 c-12 -22 -12 -28 2 -41 22 -23 38 -9 38 32 0 41 -20 46
-40 9z"/>
<path d="M7151 4016 c-14 -16 -9 -46 7 -46 5 0 15 7 22 16 11 12 11 18 -2 30
-13 13 -16 13 -27 0z"/>
<path d="M7570 4015 c0 -9 5 -15 11 -13 6 2 11 8 11 13 0 5 -5 11 -11 13 -6 2
-11 -4 -11 -13z"/>
<path d="M8366 3961 c-4 -6 -3 -19 3 -28 9 -17 10 -17 17 0 8 21 -10 45 -20
28z"/>
<path d="M7010 3926 c0 -31 14 -40 30 -21 15 18 6 45 -15 45 -9 0 -15 -9 -15
-24z"/>
<path d="M6620 3911 c-16 -32 -13 -63 8 -59 12 2 18 14 20 41 3 40 -11 49 -28
18z"/>
<path d="M6887 3913 c-10 -9 -8 -43 2 -43 5 0 14 6 20 14 8 10 8 16 -2 25 -8
6 -17 8 -20 4z"/>
<path d="M6734 3835 c-11 -27 -12 -40 -3 -56 9 -19 13 -19 25 -7 8 8 17 30 20
50 5 27 2 36 -10 41 -13 5 -21 -2 -32 -28z"/>
<path d="M7335 3840 c-11 -33 16 -57 29 -25 6 17 -2 45 -14 45 -5 0 -11 -9
-15 -20z"/>
<path d="M6481 3796 c-17 -20 8 -39 31 -22 13 10 15 15 6 24 -15 15 -23 15
-37 -2z"/>
<path d="M6353 3758 c-28 -35 -26 -98 2 -98 8 0 20 18 26 40 11 34 10 43 -3
56 -12 12 -17 13 -25 2z"/>
<path d="M6591 3746 c-6 -8 -17 -42 -23 -75 -9 -48 -9 -64 1 -74 18 -17 37 12
52 80 11 46 10 56 -3 69 -13 13 -16 13 -27 0z"/>
<path d="M6221 3723 c-7 -15 -7 -25 2 -36 11 -14 14 -14 32 -1 19 14 19 14 -2
35 -21 21 -21 21 -32 2z"/>
<path d="M7676 3721 c-4 -6 -33 -11 -66 -11 l-58 0 -7 -40 c-4 -22 -11 -37
-16 -34 -14 8 -39 -15 -39 -37 0 -10 7 -22 16 -27 15 -9 15 -15 -1 -88 -21
-99 -36 -124 -75 -124 -50 0 -52 20 -16 193 l33 157 -57 0 -57 0 -32 -157
c-31 -145 -32 -161 -20 -210 14 -59 18 -64 64 -72 91 -15 151 -3 199 40 41 35
54 73 92 257 16 77 31 127 35 120 13 -21 33 6 21 27 -6 12 -11 14 -16 6z"/>
<path d="M7047 3706 c-56 -21 -85 -52 -92 -100 -9 -56 7 -92 67 -152 39 -41
49 -56 43 -73 -3 -11 -14 -22 -23 -23 -36 -3 -78 4 -104 18 l-28 15 0 -50 c0
-62 18 -75 105 -75 106 0 165 48 165 134 0 52 -19 90 -64 124 -42 31 -58 58
-50 80 9 24 44 29 89 13 l40 -14 17 40 c10 22 17 41 16 42 -36 29 -130 40
-181 21z"/>
<path d="M7792 3598 c-70 -133 -162 -315 -162 -323 0 -3 25 -5 56 -5 l55 0 20
45 20 45 69 0 70 0 0 -45 0 -45 55 0 c37 0 55 4 55 13 0 6 -7 105 -17 220
l-17 207 -72 0 -72 0 -60 -112z m121 -65 l4 -83 -48 0 -48 0 42 89 c23 49 43
86 44 83 1 -4 3 -44 6 -89z"/>
<path d="M6461 3657 c-14 -18 -25 -72 -18 -92 10 -25 36 -6 47 35 15 55 -2 89
-29 57z"/>
<path d="M6720 3590 c0 -13 5 -20 13 -17 6 2 12 10 12 17 0 7 -6 15 -12 18 -8
2 -13 -5 -13 -18z"/>
<path d="M6207 3574 c-4 -4 -7 -18 -7 -31 0 -25 24 -32 33 -9 7 17 -15 50 -26
40z"/>
<path d="M7104 3565 c-4 -9 -4 -18 -2 -21 9 -8 39 8 35 19 -6 18 -27 20 -33 2z"/>
<path d="M6323 3554 c-9 -23 13 -40 32 -24 12 10 13 16 4 26 -15 18 -28 18
-36 -2z"/>
<path d="M8634 3555 c-12 -31 23 -48 45 -21 10 12 8 17 -8 25 -26 14 -31 14
-37 -4z"/>
<path d="M8735 3481 c-6 -21 3 -51 16 -51 11 0 29 34 29 54 0 22 -37 20 -45
-3z"/>
<path d="M6564 3457 c-6 -17 2 -37 16 -37 15 0 19 29 5 40 -12 10 -16 9 -21
-3z"/>
<path d="M6930 3451 c0 -26 17 -36 35 -21 18 15 8 40 -16 40 -12 0 -19 -7 -19
-19z"/>
<path d="M6065 3441 c-3 -11 -2 -28 3 -37 9 -15 11 -15 22 6 10 18 9 25 -3 37
-13 14 -16 13 -22 -6z"/>
<path d="M5930 3421 c-12 -24 -13 -78 -1 -85 20 -13 56 60 44 90 -7 20 -31 17
-43 -5z"/>
<path d="M5794 3406 c-9 -37 -1 -70 18 -74 12 -2 19 6 24 32 3 20 4 43 0 51
-9 23 -35 18 -42 -9z"/>
<path d="M6177 3415 c-22 -21 -32 -108 -16 -133 13 -21 13 -21 31 6 19 29 25
126 9 137 -5 3 -16 -1 -24 -10z"/>
<path d="M6416 3414 c-9 -24 -7 -64 4 -64 5 0 17 11 26 25 13 20 14 28 4 40
-16 19 -26 19 -34 -1z"/>
<path d="M8847 3408 c-2 -7 0 -21 5 -31 9 -18 11 -18 29 -1 14 13 16 20 8 31
-14 16 -36 17 -42 1z"/>
<path d="M5680 3394 c-11 -12 -10 -18 3 -32 21 -21 42 -3 32 27 -8 25 -18 27
-35 5z"/>
<path d="M6287 3374 c-13 -13 -8 -64 7 -64 19 0 38 26 34 47 -3 18 -29 29 -41
17z"/>
<path d="M6533 3318 c-18 -41 6 -67 27 -29 10 20 4 51 -9 51 -4 0 -12 -10 -18
-22z"/>
<path d="M8723 3324 c-9 -23 13 -40 32 -24 12 10 13 16 4 26 -15 18 -28 18
-36 -2z"/>
<path d="M6722 3309 c-13 -20 -9 -39 8 -39 5 0 14 9 19 19 16 28 -10 47 -27
20z"/>
<path d="M6037 3299 c-16 -25 -26 -103 -14 -115 15 -16 36 8 47 56 11 44 10
54 -3 67 -13 14 -17 13 -30 -8z"/>
<path d="M5900 3239 c-14 -25 -6 -49 14 -49 23 0 40 38 25 56 -16 19 -26 18
-39 -7z"/>
<path d="M8844 3246 c-8 -22 3 -33 18 -18 9 9 9 15 0 24 -9 9 -13 7 -18 -6z"/>
<path d="M6820 3221 c0 -26 17 -36 36 -21 11 10 12 16 3 26 -17 20 -39 17 -39
-5z"/>
<path d="M6355 3220 c-4 -6 -3 -16 3 -22 6 -6 12 -6 17 2 4 6 3 16 -3 22 -6 6
-12 6 -17 -2z"/>
<path d="M7552 3177 c-9 -10 -9 -18 1 -31 12 -16 14 -17 27 -1 11 14 11 18 -2
31 -12 13 -16 13 -26 1z"/>
<path d="M8947 3172 c-20 -22 -31 -92 -18 -112 9 -13 12 -13 25 0 22 23 37 89
25 111 -12 23 -12 23 -32 1z"/>
<path d="M6137 3174 c-11 -11 -8 -62 3 -69 18 -11 41 17 38 44 -3 25 -27 39
-41 25z"/>
<path d="M6697 3113 c-9 -8 -9 -48 0 -56 11 -12 33 14 33 39 0 23 -19 32 -33
17z"/>
<path d="M9052 3107 c-11 -13 -6 -57 7 -57 12 0 31 40 25 55 -7 18 -18 19 -32
2z"/>
<path d="M5871 3079 c-14 -33 -38 -170 -33 -191 4 -21 16 -23 29 -5 13 16 47
147 45 171 0 11 -8 26 -16 34 -13 14 -16 13 -25 -9z"/>
<path d="M6485 3070 c-8 -13 3 -50 15 -50 12 0 23 37 15 50 -3 5 -10 10 -15
10 -5 0 -12 -5 -15 -10z"/>
<path d="M6260 3061 c0 -5 3 -17 6 -25 5 -13 9 -14 20 -5 21 17 17 39 -6 39
-11 0 -20 -4 -20 -9z"/>
<path d="M6000 3045 c-15 -19 -9 -49 12 -53 19 -4 32 27 22 52 -8 20 -18 20
-34 1z"/>
<path d="M9151 3042 c-15 -29 2 -46 23 -23 10 11 15 25 11 30 -9 16 -23 13
-34 -7z"/>
<path d="M8800 3028 c0 -13 5 -30 10 -38 9 -13 11 -13 20 0 15 22 8 54 -12 58
-13 3 -18 -3 -18 -20z"/>
<path d="M9304 3026 c-4 -10 -2 -22 4 -28 8 -8 13 -7 18 6 4 10 2 22 -4 28 -8
8 -13 7 -18 -6z"/>
<path d="M5745 3000 c-12 -39 12 -53 34 -19 11 18 11 23 -1 30 -20 13 -26 11
-33 -11z"/>
<path d="M9030 2985 c-11 -13 -11 -19 2 -32 14 -14 17 -13 23 7 9 29 -8 46
-25 25z"/>
<path d="M5627 2973 c-12 -11 -8 -40 8 -53 12 -10 15 -7 21 14 8 35 -9 59 -29
39z"/>
<path d="M6124 2957 c-9 -24 6 -44 18 -22 7 11 6 21 -1 28 -7 7 -12 6 -17 -6z"/>
<path d="M5490 2939 c-14 -25 -6 -49 14 -49 23 0 40 38 25 56 -16 19 -26 18
-39 -7z"/>
<path d="M7011 2936 c-7 -9 -10 -23 -7 -33 6 -15 8 -15 22 -1 11 11 13 21 7
33 -9 15 -11 15 -22 1z"/>
<path d="M8904 2935 c-9 -23 14 -45 26 -25 5 8 8 19 7 24 -6 17 -27 18 -33 1z"/>
<path d="M5379 2917 c-14 -31 -1 -54 25 -44 20 8 20 27 2 52 -14 19 -15 19
-27 -8z"/>
<path d="M6274 2869 c-10 -17 12 -32 36 -24 17 5 19 10 9 21 -14 17 -35 18
-45 3z"/>
<path d="M5950 2847 c0 -33 10 -40 32 -21 14 13 15 20 7 31 -18 21 -39 15 -39
-10z"/>
<path d="M5724 2846 c-4 -10 -2 -22 4 -28 8 -8 13 -7 18 6 4 10 2 22 -4 28 -8
8 -13 7 -18 -6z"/>
<path d="M7969 2847 c-89 -33 -140 -104 -158 -217 -16 -99 7 -168 66 -207 30
-20 149 -23 196 -4 24 9 27 16 27 57 0 40 -2 45 -17 39 -10 -4 -43 -10 -74
-12 -50 -5 -58 -3 -73 18 -32 46 -14 158 35 210 21 23 36 29 69 29 22 0 54 -6
69 -14 27 -15 28 -14 49 30 l22 45 -34 14 c-52 22 -135 27 -177 12z"/>
<path d="M8774 2849 c-11 -19 13 -34 31 -19 13 11 13 15 3 21 -18 12 -26 11
-34 -2z"/>
<path d="M5613 2842 c-6 -4 -16 -27 -23 -51 -10 -37 -9 -46 4 -59 23 -23 38
-4 44 56 4 49 -4 67 -25 54z"/>
<path d="M6495 2838 c-10 -28 -85 -389 -91 -436 -3 -28 -1 -58 4 -68 9 -16 12
-14 31 16 14 24 17 38 10 46 -8 10 -2 13 23 16 l32 3 24 120 c36 191 41 197
40 50 -1 -194 -7 -175 56 -175 l53 0 68 148 c37 81 72 152 78 157 7 7 8 5 5
-6 -3 -8 -20 -77 -37 -152 -26 -114 -29 -140 -19 -157 15 -24 27 -26 34 -5 4
8 16 15 29 15 16 0 25 8 29 27 13 48 86 395 86 404 0 5 -34 9 -75 9 -58 0 -76
-4 -83 -16 -6 -11 -11 -13 -16 -5 -11 17 -33 13 -41 -6 -4 -12 1 -23 13 -33
18 -15 16 -20 -39 -135 l-57 -120 -1 158 -1 157 -75 0 c-52 0 -77 -4 -80 -12z"/>
<path d="M7084 2738 c-31 -62 -81 -159 -110 -214 -30 -56 -54 -104 -54 -108 0
-3 26 -6 58 -6 l57 0 18 45 19 45 69 0 69 0 0 -29 c0 -53 8 -61 61 -61 l49 0
0 38 c0 20 -7 111 -15 202 -8 91 -15 173 -15 183 0 15 -10 17 -75 17 l-75 0
-56 -112z m125 -110 l1 -38 -45 0 c-25 0 -45 2 -45 5 0 3 17 43 38 88 l37 82
7 -50 c3 -27 7 -67 7 -87z"/>
<path d="M7475 2839 c-2 -8 -23 -99 -45 -204 -22 -104 -42 -198 -44 -207 -4
-16 4 -18 54 -18 l57 0 12 63 c24 126 37 129 77 17 l29 -80 62 0 c72 0 70 -11
14 114 -30 65 -30 69 -14 82 10 7 20 14 23 14 15 1 42 66 42 103 2 88 -41 118
-174 125 -68 3 -89 1 -93 -9z m139 -85 c21 -8 20 -52 -1 -76 -9 -10 -27 -18
-40 -18 -22 0 -24 3 -18 33 14 71 20 76 59 61z"/>
<path d="M8241 2634 c-61 -119 -111 -218 -111 -220 0 -2 26 -4 58 -4 l57 0 18
45 19 45 68 0 69 0 3 -42 3 -43 53 -3 52 -3 0 38 c0 21 -7 112 -15 203 -8 91
-15 173 -15 183 0 15 -10 17 -74 17 l-74 0 -111 -216z m178 -6 l1 -38 -46 0
c-25 0 -44 4 -42 9 2 4 19 45 38 89 l35 81 7 -52 c3 -28 6 -69 7 -89z"/>
<path d="M6427 2824 c-11 -12 -8 -62 5 -70 15 -9 40 25 36 51 -3 20 -28 32
-41 19z"/>
<path d="M6049 2793 c-20 -50 -22 -98 -6 -111 24 -20 42 13 42 76 0 62 -18 81
-36 35z"/>
<path d="M5475 2791 c-8 -25 1 -41 21 -41 11 0 14 8 12 27 -4 33 -24 41 -33
14z"/>
<path d="M9073 2764 c-8 -21 13 -42 28 -27 13 13 5 43 -11 43 -6 0 -13 -7 -17
-16z"/>
<path d="M5805 2739 c-8 -13 2 -59 14 -59 4 0 16 9 26 20 15 16 15 22 5 35
-14 17 -36 20 -45 4z"/>
<path d="M6161 2736 c-11 -14 -5 -46 9 -46 15 0 32 30 26 45 -7 19 -20 19 -35
1z"/>
<path d="M8613 2734 c-9 -23 13 -40 32 -24 12 10 13 16 4 26 -15 18 -28 18
-36 -2z"/>
<path d="M5927 2724 c-13 -13 -7 -62 7 -67 20 -8 38 17 34 45 -3 22 -27 35
-41 22z"/>
<path d="M6327 2693 c-13 -12 -8 -115 5 -111 16 6 39 78 32 100 -5 18 -25 24
-37 11z"/>
<path d="M8887 2666 c-9 -23 19 -41 38 -26 12 10 13 16 4 26 -15 18 -35 18
-42 0z"/>
<path d="M9147 2646 c-8 -20 20 -43 35 -28 14 14 3 42 -16 42 -7 0 -16 -6 -19
-14z"/>
<path d="M6940 2595 c-17 -20 -5 -66 15 -59 16 7 21 59 6 68 -5 3 -14 -1 -21
-9z"/>
<path d="M8715 2559 c-9 -28 8 -45 25 -25 13 17 7 46 -9 46 -5 0 -13 -9 -16
-21z"/>
<path d="M9006 2571 c-10 -16 5 -42 23 -39 21 4 21 42 -1 46 -9 2 -19 -1 -22
-7z"/>
<path d="M6193 2548 c-19 -22 -36 -139 -23 -152 17 -16 37 15 51 81 11 46 10
56 -3 69 -12 12 -17 13 -25 2z"/>
<path d="M9114 2494 c-16 -23 -16 -27 -2 -41 22 -22 38 -8 38 33 0 40 -13 44
-36 8z"/>
<path d="M9231 2486 c-16 -20 -10 -61 9 -61 18 0 25 37 12 60 -8 14 -10 15
-21 1z"/>
<path d="M9417 2475 c-8 -18 11 -31 25 -17 11 11 3 32 -12 32 -4 0 -10 -7 -13
-15z"/>
<path d="M6300 2465 c-10 -12 -10 -18 0 -30 15 -18 30 -11 30 15 0 26 -15 33
-30 15z"/>
<path d="M8863 2450 c-14 -22 -7 -50 12 -50 19 0 27 28 15 51 -13 23 -12 23
-27 -1z"/>
<path d="M6041 2436 c-11 -13 -5 -46 8 -46 13 0 31 24 31 42 0 21 -23 24 -39
4z"/>
<path d="M8992 2407 c-7 -8 -7 -18 -1 -27 8 -13 10 -13 19 0 12 19 12 27 1 34
-5 3 -13 0 -19 -7z"/>
<path d="M9310 2375 c-23 -60 -3 -120 27 -79 17 23 13 96 -4 102 -7 2 -17 -8
-23 -23z"/>
<path d="M9512 2389 c2 -6 8 -10 13 -10 5 0 11 4 13 10 2 6 -4 11 -13 11 -9 0
-15 -5 -13 -11z"/>
<path d="M7093 2374 c-8 -22 18 -37 36 -20 7 8 10 19 7 25 -10 16 -36 13 -43
-5z"/>
<path d="M6543 2352 c-18 -11 -28 -88 -13 -97 19 -12 42 20 44 61 1 38 -9 50
-31 36z"/>
<path d="M9105 2350 c-9 -15 -1 -23 21 -18 15 3 16 4 1 16 -11 9 -17 10 -22 2z"/>
<path d="M9406 2341 c-21 -23 -18 -65 5 -69 10 -2 21 9 29 28 11 26 11 34 -2
46 -13 13 -16 12 -32 -5z"/>
<path d="M8080 2320 c0 -13 5 -20 13 -17 6 2 12 10 12 17 0 7 -6 15 -12 18 -8
2 -13 -5 -13 -18z"/>
<path d="M9200 2325 c0 -10 7 -15 18 -13 21 4 19 22 -2 26 -10 2 -16 -3 -16
-13z"/>
<path d="M5906 2314 c-3 -9 -2 -22 2 -30 7 -12 11 -12 26 5 19 21 14 41 -9 41
-7 0 -16 -7 -19 -16z"/>
<path d="M6262 2313 c-14 -26 -24 -110 -17 -133 8 -25 32 -26 39 -2 18 56 25
126 15 138 -15 19 -26 18 -37 -3z"/>
<path d="M6642 2317 c-7 -8 -17 -40 -23 -71 -16 -88 8 -131 35 -63 22 52 27
111 13 131 -11 15 -15 16 -25 3z"/>
<path d="M8664 2319 c-10 -17 13 -36 27 -22 12 12 4 33 -11 33 -5 0 -12 -5
-16 -11z"/>
<path d="M9506 2322 c-3 -6 -1 -14 5 -17 15 -10 25 3 12 16 -7 7 -13 7 -17 1z"/>
<path d="M6886 2301 c-8 -12 3 -41 15 -41 5 0 9 4 9 9 0 5 3 16 6 25 7 17 -20
23 -30 7z"/>
<path d="M6015 2290 c-3 -6 -3 -20 0 -31 6 -19 9 -20 22 -6 9 9 13 23 10 31
-7 18 -23 21 -32 6z"/>
<path d="M6147 2293 c-10 -9 -8 -43 2 -43 5 0 14 7 21 15 17 21 -4 48 -23 28z"/>
<path d="M8256 2274 c-7 -17 0 -34 14 -34 15 0 19 28 6 40 -10 8 -15 6 -20 -6z"/>
<path d="M6740 2239 c-11 -20 1 -49 21 -49 12 0 20 35 13 54 -8 22 -21 20 -34
-5z"/>
<path d="M8560 2230 c0 -13 5 -20 13 -17 6 2 12 10 12 17 0 7 -6 15 -12 18 -8
2 -13 -5 -13 -18z"/>
<path d="M6384 2225 c-7 -18 2 -45 15 -45 12 0 24 37 16 50 -9 15 -25 12 -31
-5z"/>
<path d="M7001 2212 c-6 -11 -6 -24 -1 -33 8 -12 13 -11 30 6 20 20 20 20 0
33 -16 10 -21 9 -29 -6z"/>
<path d="M8752 2188 c-16 -16 -15 -53 2 -67 19 -16 38 10 34 45 -3 31 -18 40
-36 22z"/>
<path d="M6122 2168 c-14 -14 -15 -47 -2 -68 8 -13 11 -12 24 5 19 25 20 49 3
64 -10 8 -17 7 -25 -1z"/>
<path d="M7130 2170 c-10 -6 -11 -14 -3 -32 10 -22 10 -22 21 -2 13 25 2 46
-18 34z"/>
<path d="M6001 2157 c-7 -10 -8 -22 -2 -38 l9 -24 13 28 c15 32 0 58 -20 34z"/>
<path d="M6500 2141 c-15 -28 -9 -66 10 -66 10 0 16 12 18 34 4 43 -12 61 -28
32z"/>
<path d="M6855 2148 c-2 -7 -6 -35 -7 -63 -2 -38 0 -50 11 -50 21 0 44 75 32
103 -12 24 -29 29 -36 10z"/>
<path d="M8640 2145 c-14 -17 -5 -48 13 -43 14 5 23 58 9 58 -5 0 -15 -7 -22
-15z"/>
<path d="M6726 2098 c-18 -26 -21 -74 -5 -84 28 -17 62 73 35 95 -11 10 -17 8
-30 -11z"/>
<path d="M7244 2085 c-7 -28 7 -52 25 -41 16 10 14 41 -4 56 -12 10 -15 7 -21
-15z"/>
<path d="M8466 2094 c-9 -24 12 -44 24 -24 5 8 8 19 7 24 -6 17 -24 17 -31 0z"/>
<path d="M8851 2076 c-16 -29 -8 -58 13 -50 21 8 25 27 12 52 l-12 23 -13 -25z"/>
<path d="M8052 2078 c3 -7 13 -15 22 -16 12 -3 17 1 14 10 -3 7 -13 15 -22 16
-12 3 -17 -1 -14 -10z"/>
<path d="M8206 2053 c-3 -4 -6 -12 -6 -20 0 -14 36 -18 44 -5 6 10 -30 33 -38
25z"/>
<path d="M6585 2039 c-8 -13 2 -59 14 -59 15 0 30 47 18 59 -14 14 -24 14 -32
0z"/>
<path d="M6935 2039 c-9 -13 3 -59 15 -59 14 0 31 37 24 54 -7 18 -30 21 -39
5z"/>
<path d="M8740 2025 c-20 -24 4 -45 26 -24 13 14 13 17 1 27 -11 10 -17 9 -27
-3z"/>
<path d="M7113 2014 c-9 -23 11 -38 26 -20 13 16 7 36 -10 36 -5 0 -12 -7 -16
-16z"/>
<path d="M7925 2009 c-9 -26 10 -48 26 -32 12 12 3 53 -11 53 -5 0 -12 -9 -15
-21z"/>
<path d="M8923 1965 c-8 -21 1 -28 27 -20 17 5 19 10 9 21 -15 18 -28 18 -36
-1z"/>
<path d="M8825 1939 c-9 -27 8 -45 24 -26 12 15 5 47 -9 47 -5 0 -12 -9 -15
-21z"/>
<path d="M7011 1926 c-8 -9 -9 -21 -4 -30 7 -13 11 -13 28 0 17 13 18 16 4 30
-14 13 -17 13 -28 0z"/>
<path d="M8297 1919 c-11 -40 15 -69 28 -30 6 20 -3 51 -15 51 -4 0 -10 -9
-13 -21z"/>
<path d="M8584 1929 c-11 -19 13 -34 31 -19 13 11 13 15 3 21 -18 12 -26 11
-34 -2z"/>
<path d="M6912 1900 c-11 -29 -7 -40 14 -40 16 0 18 27 4 50 -7 12 -11 10 -18
-10z"/>
<path d="M8017 1914 c-8 -8 1 -24 14 -24 5 0 9 7 9 15 0 15 -12 20 -23 9z"/>
<path d="M8394 1909 c-8 -14 11 -33 25 -25 6 4 11 11 11 16 0 13 -29 20 -36 9z"/>
<path d="M7477 1903 c-4 -3 -7 -15 -7 -25 0 -26 24 -17 28 10 3 21 -8 29 -21
15z"/>
<path d="M7214 1885 c-4 -9 -4 -18 -2 -21 9 -8 39 8 35 19 -6 18 -27 20 -33 2z"/>
<path d="M7864 1876 c-11 -46 25 -65 47 -24 10 18 8 24 -7 35 -25 18 -33 16
-40 -11z"/>
<path d="M7331 1826 c-11 -14 -5 -46 9 -46 4 0 14 8 23 18 15 16 15 19 -3 29
-14 10 -21 9 -29 -1z"/>
<path d="M8915 1830 c-4 -6 -3 -16 3 -22 6 -6 12 -6 17 2 4 6 3 16 -3 22 -6 6
-12 6 -17 -2z"/>
<path d="M6985 1787 c-9 -36 9 -58 24 -29 7 14 7 24 -4 38 -13 18 -14 18 -20
-9z"/>
<path d="M8182 1789 c-12 -18 -11 -24 2 -37 20 -20 39 -4 34 29 -4 30 -20 34
-36 8z"/>
<path d="M7094 1787 c-3 -9 -1 -24 4 -33 9 -16 10 -16 21 3 8 16 7 24 -4 33
-12 10 -16 9 -21 -3z"/>
<path d="M8284 1779 c-3 -6 -1 -16 4 -21 13 -13 45 8 36 23 -7 12 -31 11 -40
-2z"/>
<path d="M8686 1764 c-3 -9 -3 -20 0 -25 9 -15 34 10 27 27 -7 19 -19 18 -27
-2z"/>
<path d="M7446 1711 c-14 -16 -15 -23 -6 -41 15 -28 34 -21 38 14 5 39 -10 51
-32 27z"/>
<path d="M7074 1646 c-4 -10 -2 -22 4 -28 8 -8 13 -7 18 6 4 10 2 22 -4 28 -8
8 -13 7 -18 -6z"/>
<path d="M7314 1646 c-3 -8 -1 -23 4 -32 9 -16 11 -15 21 5 12 22 7 41 -10 41
-5 0 -12 -6 -15 -14z"/>
<path d="M6960 1626 c0 -8 4 -17 9 -20 11 -7 33 18 24 27 -12 12 -33 7 -33 -7z"/>
<path d="M7550 1560 c0 -5 5 -10 10 -10 6 0 10 5 10 10 0 6 -4 10 -10 10 -5 0
-10 -4 -10 -10z"/>
<path d="M7192 1543 c-17 -33 -23 -92 -11 -114 18 -35 39 -3 42 66 2 60 -13
83 -31 48z"/>
<path d="M7425 1511 c-11 -35 16 -58 29 -24 4 9 0 23 -8 31 -12 12 -15 11 -21
-7z"/>
<path d="M6940 1475 c-14 -17 -4 -55 15 -55 14 0 25 21 25 51 0 22 -22 25 -40
4z"/>
<path d="M7057 1476 c-3 -8 0 -19 7 -25 10 -8 17 -6 30 8 15 17 15 19 1 25
-25 9 -32 7 -38 -8z"/>
<path d="M7282 1418 c-16 -16 -15 -63 2 -77 20 -17 38 10 34 50 -3 36 -17 46
-36 27z"/>
<path d="M7576 1392 c-9 -14 9 -31 23 -23 7 5 10 14 7 20 -8 13 -23 14 -30 3z"/>
<path d="M7047 1363 c-9 -8 -9 -48 0 -56 3 -4 14 0 24 9 15 13 16 20 6 35 -13
20 -20 23 -30 12z"/>
<path d="M7167 1333 c-12 -11 -8 -23 8 -23 8 0 15 7 15 15 0 16 -12 20 -23 8z"/>
<path d="M7394 1295 c-9 -23 14 -45 26 -25 5 8 8 19 7 24 -6 17 -27 18 -33 1z"/>
<path d="M6897 1283 c-3 -10 -8 -40 -12 -66 -6 -43 -4 -48 11 -45 21 4 47 74
39 106 -6 26 -32 29 -38 5z"/>
<path d="M7261 1226 c-8 -10 -8 -16 3 -25 10 -9 16 -8 26 3 12 15 6 36 -9 36
-5 0 -14 -6 -20 -14z"/>
<path d="M7151 1202 c-7 -14 -8 -28 -3 -38 8 -14 10 -14 22 1 9 11 10 22 3 38
l-10 22 -12 -23z"/>
<path d="M7775 1200 c-9 -29 8 -46 25 -25 11 13 11 19 -2 32 -14 14 -17 13
-23 -7z"/>
<path d="M7004 1199 c-3 -6 0 -17 8 -25 13 -13 16 -13 27 0 7 8 10 20 6 26 -8
13 -32 13 -41 -1z"/>
<path d="M7524 1196 c-4 -10 -2 -22 4 -28 8 -8 13 -7 18 6 4 10 2 22 -4 28 -8
8 -13 7 -18 -6z"/>
<path d="M6767 1184 c-14 -14 -7 -35 11 -32 9 2 17 10 17 17 0 16 -18 25 -28
15z"/>
<path d="M6525 1159 c-10 -15 3 -25 16 -12 7 7 7 13 1 17 -6 3 -14 1 -17 -5z"/>
<path d="M6337 1154 c-11 -11 -8 -44 3 -44 15 0 24 30 13 41 -5 5 -12 6 -16 3z"/>
<path d="M7384 1135 c-3 -8 -3 -19 1 -25 10 -16 35 7 28 26 -7 18 -22 18 -29
-1z"/>
<path d="M7644 1136 c-8 -22 3 -33 18 -18 9 9 9 15 0 24 -9 9 -13 7 -18 -6z"/>
<path d="M6402 1098 c5 -15 28 -18 29 -3 0 6 -7 12 -17 13 -10 3 -15 -1 -12
-10z"/>
<path d="M7820 1064 c0 -17 22 -14 28 4 2 7 -3 12 -12 12 -9 0 -16 -7 -16 -16z"/>
<path d="M6316 1021 c-3 -5 1 -14 8 -20 16 -13 32 2 21 19 -8 12 -22 13 -29 1z"/>
<path d="M6937 983 c-13 -12 -7 -63 7 -63 15 0 26 21 26 51 0 18 -20 26 -33
12z"/>
<path d="M7047 976 c-3 -8 0 -19 7 -25 10 -8 17 -6 30 8 15 17 15 19 1 25 -25
9 -32 7 -38 -8z"/>
<path d="M8130 940 c0 -13 5 -20 13 -17 6 2 12 10 12 17 0 7 -6 15 -12 18 -8
2 -13 -5 -13 -18z"/>
<path d="M8227 954 c-11 -11 -8 -52 4 -60 10 -6 28 11 29 27 0 13 -26 40 -33
33z"/>
<path d="M7272 918 c-16 -16 -15 -63 2 -77 20 -17 38 10 34 50 -3 36 -17 46
-36 27z"/>
<path d="M7566 892 c-9 -14 9 -31 23 -23 7 5 10 14 7 20 -8 13 -23 14 -30 3z"/>
<path d="M6304 879 c-9 -16 12 -33 31 -25 14 5 15 9 5 21 -15 18 -26 19 -36 4z"/>
<path d="M7036 863 c-8 -8 -8 -48 1 -56 7 -8 43 21 43 34 0 12 -36 30 -44 22z"/>
<path d="M8127 845 c-8 -18 11 -31 25 -17 11 11 3 32 -12 32 -4 0 -10 -7 -13
-15z"/>
<path d="M7157 833 c-12 -11 -8 -23 8 -23 8 0 15 7 15 15 0 16 -12 20 -23 8z"/>
<path d="M7384 795 c-9 -23 14 -45 26 -25 5 8 8 19 7 24 -6 17 -27 18 -33 1z"/>
<path d="M8202 788 c-14 -14 -16 -57 -3 -77 7 -11 12 -8 26 12 27 42 8 96 -23
65z"/>
<path d="M6656 743 c-8 -21 10 -41 24 -27 11 11 3 44 -10 44 -4 0 -11 -8 -14
-17z"/>
<path d="M7251 726 c-8 -10 -8 -16 3 -25 10 -9 16 -8 26 3 12 15 6 36 -9 36
-5 0 -14 -6 -20 -14z"/>
<path d="M7141 702 c-7 -14 -8 -28 -3 -38 8 -14 10 -14 22 1 9 11 10 22 3 38
l-10 22 -12 -23z"/>
<path d="M6994 699 c-3 -6 0 -17 8 -25 13 -13 16 -13 27 0 7 8 10 20 6 26 -8
13 -32 13 -41 -1z"/>
<path d="M7514 695 c-7 -17 4 -37 17 -30 12 8 12 45 -1 45 -6 0 -13 -7 -16
-15z"/>
<path d="M6563 654 c-9 -23 11 -38 26 -20 13 16 7 36 -10 36 -5 0 -12 -7 -16
-16z"/>
<path d="M7372 638 c-8 -8 -9 -15 0 -25 14 -17 39 2 31 23 -6 17 -15 18 -31 2z"/>
<path d="M7634 636 c-8 -22 3 -33 18 -18 9 9 9 15 0 24 -9 9 -13 7 -18 -6z"/>
<path d="M6645 630 c-11 -17 5 -32 21 -19 7 6 11 15 8 20 -7 12 -21 11 -29 -1z"/>
<path d="M6780 611 c0 -6 5 -13 10 -16 6 -3 10 1 10 9 0 9 -4 16 -10 16 -5 0
-10 -4 -10 -9z"/>
<path d="M8183 584 c-3 -8 -1 -25 5 -37 10 -22 10 -22 21 6 11 29 8 47 -10 47
-5 0 -12 -7 -16 -16z"/>
<path d="M8084 487 c-9 -24 6 -44 18 -22 7 11 6 21 -1 28 -7 7 -12 6 -17 -6z"/>
</g>
</svg>
